<svg width="120" height="40" viewBox="0 0 120 40" fill="none" xmlns="http://www.w3.org/2000/svg">
  <!-- Background gradient -->
  <defs>
    <linearGradient id="logoGradient" x1="0%" y1="0%" x2="100%" y2="0%">
      <stop offset="0%" style="stop-color:#3B82F6;stop-opacity:1" />
      <stop offset="100%" style="stop-color:#6366F1;stop-opacity:1" />
    </linearGradient>
    <linearGradient id="textGradient" x1="0%" y1="0%" x2="100%" y2="0%">
      <stop offset="0%" style="stop-color:#1F2937;stop-opacity:1" />
      <stop offset="100%" style="stop-color:#374151;stop-opacity:1" />
    </linearGradient>
  </defs>
  
  <!-- Icon background circle -->
  <circle cx="20" cy="20" r="16" fill="url(#logoGradient)" />
  
  <!-- Brain/AI icon -->
  <path d="M12 14c0-1.1.9-2 2-2s2 .9 2 2-.9 2-2 2-2-.9-2-2zm6 0c0-1.1.9-2 2-2s2 .9 2 2-.9 2-2 2-2-.9-2-2zm-6 6c0-1.1.9-2 2-2s2 .9 2 2-.9 2-2 2-2-.9-2-2zm6 0c0-1.1.9-2 2-2s2 .9 2 2-.9 2-2 2-2-.9-2-2z" fill="white" opacity="0.9"/>
  <path d="M14 16h4M16 14v4M18 18l2 2M16 18l-2 2" stroke="white" stroke-width="1.5" stroke-linecap="round" opacity="0.7"/>
  
  <!-- Text -->
  <text x="42" y="16" font-family="-apple-system, BlinkMacSystemFont, 'Segoe UI', Roboto, sans-serif" font-size="14" font-weight="700" fill="url(#textGradient)">Summar</text>
  <text x="42" y="30" font-family="-apple-system, BlinkMacSystemFont, 'Segoe UI', Roboto, sans-serif" font-size="14" font-weight="700" fill="url(#logoGradient)">IQ</text>
</svg>